# Blender 4.0.1
# www.blender.org
mtllib funnel4.mtl
o funnel2
v 65.099998 -0.000006 -81.349998
v 64.212120 10.715102 -81.349998
v 61.572701 21.137930 -81.349998
v 57.253742 30.984169 -81.349998
v 51.373047 39.985241 -81.349998
v 44.091030 47.895618 -81.349998
v 35.606323 54.499531 -81.350006
v 26.150372 59.616837 -81.350006
v 15.981105 63.107948 -81.350006
v 5.375915 64.877640 -81.350006
v -5.375915 64.877640 -81.350006
v -15.981105 63.107948 -81.350006
v -26.150372 59.616837 -81.350006
v -35.606323 54.499531 -81.350006
v -44.091030 47.895618 -81.349998
v -51.373047 39.985241 -81.349998
v -57.253742 30.984169 -81.349998
v -61.572701 21.137930 -81.349998
v -64.212120 10.715102 -81.349998
v -65.099998 -0.000006 -81.349998
v -64.212120 -10.715114 -81.349998
v -61.572701 -21.137941 -81.349998
v -57.253742 -30.984180 -81.349998
v -51.373047 -39.985256 -81.349998
v -44.091030 -47.895634 -81.349998
v -35.606323 -54.499546 -81.349991
v -26.150372 -59.616852 -81.349991
v -15.981105 -63.107964 -81.349991
v -5.375915 -64.877655 -81.349991
v 5.375915 -64.877655 -81.349991
v 15.981105 -63.107964 -81.349991
v 26.150372 -59.616852 -81.349991
v 35.606323 -54.499546 -81.349991
v 44.091030 -47.895634 -81.349998
v 51.373047 -39.985256 -81.349998
v 57.253742 -30.984180 -81.349998
v 61.572701 -21.137941 -81.349998
v 64.212120 -10.715114 -81.349998
v 8.000000 0.000004 56.292301
v 7.727407 -2.070548 56.292301
v 6.928203 -3.999996 56.292301
v 5.656854 -5.656850 56.292301
v 4.000000 -6.928199 56.292301
v 2.070552 -7.727403 56.292301
v 0.000000 -7.999996 56.292301
v -2.070552 -7.727403 56.292301
v -4.000000 -6.928199 56.292301
v -5.656854 -5.656850 56.292301
v -6.928203 -3.999996 56.292301
v -7.727407 -2.070548 56.292301
v -8.000000 0.000004 56.292301
v -7.727407 2.070556 56.292301
v -6.928203 4.000004 56.292301
v -5.656854 5.656858 56.292301
v -4.000000 6.928207 56.292301
v -2.070552 7.727411 56.292301
v 0.000000 8.000004 56.292301
v 2.070552 7.727411 56.292301
v 4.000000 6.928207 56.292301
v 5.656854 5.656858 56.292301
v 6.928203 4.000004 56.292301
v 7.727407 2.070556 56.292301
v 12.000000 0.000002 20.250000
v 11.591110 -3.105828 20.250000
v 10.392305 -5.999999 20.250000
v 8.485281 -8.485279 20.250000
v 6.000000 -10.392303 20.250000
v 3.105829 -11.591108 20.250000
v 0.000000 -11.999998 20.250000
v -3.105829 -11.591108 20.250000
v -6.000000 -10.392303 20.250000
v -8.485281 -8.485279 20.250000
v -10.392305 -5.999999 20.250000
v -11.591110 -3.105828 20.250000
v -12.000000 0.000002 20.250000
v -11.591110 3.105830 20.250000
v -10.392305 6.000001 20.250000
v -8.485281 8.485283 20.250000
v -6.000000 10.392307 20.250000
v -3.105829 11.591112 20.250000
v 0.000000 12.000002 20.250000
v 3.105829 11.591112 20.250000
v 6.000000 10.392307 20.250000
v 8.485281 8.485283 20.250000
v 10.392305 6.000001 20.250000
v 11.591110 3.105830 20.250000
vn -0.9601 -0.2570 -0.1105
vn -0.9602 -0.2570 -0.1096
vn -0.9939 -0.0002 -0.1106
vn -0.9938 -0.0002 -0.1114
vn -0.9601 -0.2570 -0.1106
vn -0.9939 -0.0002 -0.1105
vn -0.9939 0.0002 -0.1105
vn -0.9940 0.0002 -0.1096
vn -0.9601 0.2570 -0.1106
vn -0.9600 0.2570 -0.1114
vn -0.9939 0.0002 -0.1106
vn -0.9601 0.2570 -0.1105
vn -0.9599 0.2575 -0.1105
vn -0.9600 0.2575 -0.1096
vn -0.8608 0.4967 -0.1106
vn -0.8608 0.4967 -0.1114
vn -0.9599 0.2575 -0.1106
vn -0.8608 0.4967 -0.1105
vn -0.8606 0.4971 -0.1105
vn -0.8607 0.4972 -0.1096
vn -0.7029 0.7026 -0.1106
vn -0.7029 0.7025 -0.1114
vn -0.8606 0.4971 -0.1106
vn -0.7029 0.7026 -0.1105
vn -0.7026 0.7029 -0.1105
vn -0.7027 0.7030 -0.1096
vn -0.4971 0.8606 -0.1106
vn -0.4971 0.8605 -0.1114
vn -0.7026 0.7029 -0.1106
vn -0.4971 0.8606 -0.1105
vn -0.4967 0.8608 -0.1105
vn -0.4968 0.8609 -0.1096
vn -0.2575 0.9599 -0.1106
vn -0.2574 0.9598 -0.1114
vn -0.4967 0.8608 -0.1106
vn -0.2575 0.9599 -0.1105
vn -0.2570 0.9601 -0.1105
vn -0.2570 0.9602 -0.1096
vn -0.0002 0.9939 -0.1106
vn -0.0002 0.9938 -0.1114
vn -0.2570 0.9601 -0.1106
vn -0.0002 0.9939 -0.1105
vn 0.0002 0.9939 -0.1105
vn 0.0002 0.9940 -0.1096
vn 0.2570 0.9601 -0.1106
vn 0.2570 0.9600 -0.1114
vn 0.0002 0.9939 -0.1106
vn 0.2570 0.9601 -0.1105
vn 0.2575 0.9599 -0.1105
vn 0.2575 0.9600 -0.1096
vn 0.4967 0.8608 -0.1106
vn 0.4967 0.8608 -0.1114
vn 0.2575 0.9599 -0.1106
vn 0.4967 0.8608 -0.1105
vn 0.4971 0.8606 -0.1106
vn 0.4972 0.8607 -0.1096
vn 0.7026 0.7029 -0.1106
vn 0.7025 0.7029 -0.1114
vn 0.7026 0.7029 -0.1105
vn 0.7029 0.7026 -0.1105
vn 0.7030 0.7027 -0.1096
vn 0.8606 0.4971 -0.1106
vn 0.8605 0.4971 -0.1114
vn 0.7029 0.7026 -0.1106
vn 0.8606 0.4971 -0.1105
vn 0.8608 0.4967 -0.1106
vn 0.8609 0.4968 -0.1096
vn 0.9599 0.2575 -0.1106
vn 0.9598 0.2574 -0.1114
vn 0.9599 0.2575 -0.1105
vn 0.9601 0.2570 -0.1105
vn 0.9602 0.2570 -0.1096
vn 0.9939 0.0002 -0.1106
vn 0.9938 0.0002 -0.1114
vn 0.9601 0.2570 -0.1106
vn 0.9939 0.0002 -0.1105
vn 0.9939 -0.0002 -0.1105
vn 0.9940 -0.0002 -0.1096
vn 0.9601 -0.2570 -0.1106
vn 0.9600 -0.2570 -0.1114
vn 0.9939 -0.0002 -0.1106
vn 0.9601 -0.2570 -0.1105
vn 0.9599 -0.2575 -0.1105
vn 0.9600 -0.2575 -0.1096
vn 0.8608 -0.4967 -0.1106
vn 0.8608 -0.4967 -0.1114
vn 0.9599 -0.2575 -0.1106
vn 0.8608 -0.4967 -0.1105
vn 0.8606 -0.4971 -0.1105
vn 0.8607 -0.4972 -0.1096
vn 0.7029 -0.7026 -0.1106
vn 0.7029 -0.7025 -0.1114
vn 0.8606 -0.4971 -0.1106
vn 0.7029 -0.7026 -0.1105
vn 0.7026 -0.7029 -0.1105
vn 0.7027 -0.7030 -0.1096
vn 0.4971 -0.8606 -0.1106
vn 0.4971 -0.8605 -0.1114
vn 0.7026 -0.7029 -0.1106
vn 0.4971 -0.8606 -0.1105
vn 0.4967 -0.8608 -0.1105
vn 0.4968 -0.8609 -0.1096
vn 0.2575 -0.9599 -0.1106
vn 0.2574 -0.9598 -0.1114
vn 0.4967 -0.8608 -0.1106
vn 0.2575 -0.9599 -0.1105
vn 0.2570 -0.9601 -0.1105
vn 0.2570 -0.9602 -0.1096
vn 0.0002 -0.9939 -0.1106
vn 0.0002 -0.9938 -0.1114
vn 0.2570 -0.9601 -0.1106
vn 0.0002 -0.9939 -0.1105
vn -0.0002 -0.9939 -0.1105
vn -0.0002 -0.9940 -0.1096
vn -0.2570 -0.9601 -0.1106
vn -0.2570 -0.9600 -0.1114
vn -0.0002 -0.9939 -0.1106
vn -0.2570 -0.9601 -0.1105
vn -0.2575 -0.9599 -0.1105
vn -0.2575 -0.9600 -0.1096
vn -0.4967 -0.8608 -0.1106
vn -0.4967 -0.8608 -0.1114
vn -0.2575 -0.9599 -0.1106
vn -0.4967 -0.8608 -0.1105
vn -0.4971 -0.8606 -0.1106
vn -0.4972 -0.8607 -0.1096
vn -0.7026 -0.7029 -0.1106
vn -0.7025 -0.7029 -0.1114
vn -0.7026 -0.7029 -0.1105
vn -0.7029 -0.7026 -0.1105
vn -0.7030 -0.7027 -0.1096
vn -0.8606 -0.4971 -0.1106
vn -0.8605 -0.4971 -0.1114
vn -0.7029 -0.7026 -0.1106
vn -0.8606 -0.4971 -0.1105
vn -0.8608 -0.4967 -0.1106
vn -0.8609 -0.4968 -0.1096
vn -0.9599 -0.2575 -0.1106
vn -0.9598 -0.2574 -0.1114
vn -0.9599 -0.2575 -0.1105
vn -0.8561 -0.2294 -0.4632
vn -0.8742 -0.1459 -0.4632
vn -0.8863 -0.0000 -0.4632
vn -0.8742 0.1459 -0.4632
vn -0.8742 -0.1458 -0.4632
vn -0.8382 -0.2877 -0.4632
vn -0.8382 -0.2878 -0.4632
vn -0.7675 -0.4431 -0.4632
vn -0.7794 -0.4218 -0.4632
vn -0.6994 -0.5443 -0.4632
vn -0.6994 -0.5444 -0.4632
vn -0.6267 -0.6267 -0.4632
vn -0.6003 -0.6520 -0.4632
vn -0.4847 -0.7420 -0.4632
vn -0.4848 -0.7419 -0.4632
vn -0.4431 -0.7675 -0.4632
vn -0.3560 -0.8116 -0.4632
vn -0.2294 -0.8561 -0.4632
vn -0.2176 -0.8591 -0.4632
vn -0.0732 -0.8832 -0.4632
vn -0.0000 -0.8863 -0.4632
vn -0.0000 -0.8862 -0.4633
vn 0.0732 -0.8832 -0.4632
vn 0.2294 -0.8561 -0.4632
vn 0.2176 -0.8591 -0.4632
vn 0.3560 -0.8116 -0.4632
vn 0.4431 -0.7675 -0.4632
vn 0.4847 -0.7420 -0.4632
vn 0.4848 -0.7419 -0.4632
vn 0.6267 -0.6267 -0.4632
vn 0.6003 -0.6520 -0.4632
vn 0.6994 -0.5444 -0.4632
vn 0.7675 -0.4431 -0.4632
vn 0.6994 -0.5443 -0.4632
vn 0.7794 -0.4218 -0.4632
vn 0.8382 -0.2878 -0.4632
vn 0.8561 -0.2294 -0.4632
vn 0.8382 -0.2877 -0.4632
vn 0.8742 -0.1458 -0.4632
vn 0.8742 -0.1459 -0.4632
vn 0.8863 -0.0000 -0.4632
vn 0.8742 0.1459 -0.4632
vn 0.8561 0.2294 -0.4632
vn 0.8742 0.1458 -0.4632
vn 0.8382 0.2877 -0.4632
vn 0.8382 0.2878 -0.4632
vn 0.7675 0.4431 -0.4632
vn 0.7794 0.4218 -0.4632
vn 0.6994 0.5443 -0.4632
vn 0.6994 0.5444 -0.4632
vn 0.6267 0.6267 -0.4632
vn 0.6003 0.6520 -0.4632
vn 0.4847 0.7420 -0.4632
vn 0.4848 0.7419 -0.4632
vn 0.4431 0.7675 -0.4632
vn 0.3560 0.8116 -0.4632
vn 0.2294 0.8561 -0.4632
vn 0.2176 0.8591 -0.4632
vn 0.0732 0.8832 -0.4632
vn -0.0000 0.8863 -0.4632
vn -0.0000 0.8862 -0.4633
vn -0.0732 0.8832 -0.4632
vn -0.2294 0.8561 -0.4632
vn -0.2176 0.8591 -0.4632
vn -0.3560 0.8116 -0.4632
vn -0.4431 0.7675 -0.4632
vn -0.4847 0.7420 -0.4632
vn -0.4848 0.7419 -0.4632
vn -0.6267 0.6267 -0.4632
vn -0.6003 0.6520 -0.4632
vn -0.6994 0.5444 -0.4632
vn -0.7675 0.4431 -0.4632
vn -0.6994 0.5443 -0.4632
vn -0.7794 0.4218 -0.4632
vn -0.8382 0.2878 -0.4632
vn -0.8561 0.2294 -0.4632
vn -0.8382 0.2877 -0.4632
vn -0.8742 0.1458 -0.4632
vt 1.600049 0.261799
vt -1.600049 0.261799
vt 1.600049 0.000000
vt -1.600049 0.000000
vt 1.600049 -0.261799
vt -1.600049 -0.261799
vt 1.600049 -0.523599
vt -1.600049 -0.523599
vt 1.600049 -0.785398
vt -1.600049 -0.785398
vt 1.600049 -1.047198
vt -1.600049 -1.047198
vt 1.600049 -1.308997
vt -1.600049 -1.308997
vt 1.600049 -1.570796
vt -1.600049 -1.570796
vt 1.600049 -1.832596
vt -1.600049 -1.832596
vt 1.600049 -2.094395
vt -1.600049 -2.094395
vt 1.600049 -2.356194
vt -1.600049 -2.356194
vt 1.600049 -2.617994
vt -1.600049 -2.617994
vt 1.600049 -2.879793
vt -1.600049 -2.879793
vt 1.600049 -3.141593
vt -1.600049 -3.141593
vt 1.600049 3.141593
vt -1.600049 3.141593
vt 1.600049 2.879793
vt -1.600049 2.879793
vt 1.600049 2.617994
vt -1.600049 2.617994
vt 1.600049 2.356194
vt -1.600049 2.356194
vt 1.600049 2.094395
vt -1.600049 2.094395
vt 1.600049 1.832596
vt -1.600049 1.832596
vt 1.600049 1.570796
vt -1.600049 1.570796
vt 1.600049 1.308997
vt -1.600049 1.308997
vt 1.600049 1.047198
vt -1.600049 1.047198
vt 1.600049 0.785398
vt -1.600049 0.785398
vt 1.600049 0.523599
vt -1.600049 0.523599
vt 5.731965 1.009237
vt -5.731965 0.637413
vt 5.731965 0.000000
vt -5.731965 0.000000
vt -5.731965 -0.637413
vt -5.731965 1.274825
vt 5.731965 2.018473
vt -5.731965 1.912238
vt -5.731965 2.549650
vt 5.731965 3.027710
vt -5.731965 3.187063
vt -5.731965 3.824476
vt 5.731965 4.036947
vt -5.731965 4.461888
vt 5.731965 5.046183
vt -5.731965 5.099301
vt -5.731965 5.736714
vt 5.731965 6.055420
vt -5.731965 6.374126
vt 5.731965 7.064656
vt -5.731965 7.011539
vt -5.731965 7.648951
vt 5.731965 8.073893
vt -5.731965 8.286364
vt 5.731965 9.083130
vt -5.731965 8.923777
vt -5.731965 9.561189
vt 5.731965 10.092366
vt -5.731965 10.198602
vt -5.731965 10.836014
vt 5.731965 11.101603
vt -5.731965 11.473427
vt 5.731965 12.110840
vt -5.731965 12.110840
vt -5.731965 -12.110840
vt 5.731965 -12.110840
vt -5.731965 -11.473427
vt 5.731965 -11.101603
vt -5.731965 -10.836014
vt 5.731965 -10.092366
vt -5.731965 -10.198602
vt -5.731965 -9.561189
vt 5.731965 -9.083130
vt -5.731965 -8.923777
vt -5.731965 -8.286364
vt 5.731965 -8.073893
vt -5.731965 -7.648951
vt 5.731965 -7.064656
vt -5.731965 -7.011539
vt -5.731965 -6.374126
vt 5.731965 -6.055420
vt -5.731965 -5.736714
vt 5.731965 -5.046183
vt -5.731965 -5.099301
vt -5.731965 -4.461888
vt 5.731965 -4.036947
vt -5.731965 -3.824476
vt 5.731965 -3.027710
vt -5.731965 -3.187063
vt -5.731965 -2.549650
vt 5.731965 -2.018473
vt -5.731965 -1.912238
vt -5.731965 -1.274825
vt 5.731965 -1.009237
s 0
usemtl Steel_-_Satin
f 62/1/1 86/2/2 39/3/3
f 39/3/4 86/2/5 63/4/6
f 39/3/7 63/4/8 40/5/9
f 40/5/10 63/4/11 64/6/12
f 40/5/13 64/6/14 41/7/15
f 41/7/16 64/6/17 65/8/18
f 41/7/19 65/8/20 42/9/21
f 42/9/22 65/8/23 66/10/24
f 42/9/25 66/10/26 43/11/27
f 43/11/28 66/10/29 67/12/30
f 43/11/31 67/12/32 44/13/33
f 44/13/34 67/12/35 68/14/36
f 44/13/37 68/14/38 45/15/39
f 45/15/40 68/14/41 69/16/42
f 45/15/43 69/16/44 46/17/45
f 46/17/46 69/16/47 70/18/48
f 46/17/49 70/18/50 47/19/51
f 47/19/52 70/18/53 71/20/54
f 47/19/55 71/20/56 48/21/57
f 48/21/58 71/20/55 72/22/59
f 48/21/60 72/22/61 49/23/62
f 49/23/63 72/22/64 73/24/65
f 49/23/66 73/24/67 50/25/68
f 50/25/69 73/24/66 74/26/70
f 50/25/71 74/26/72 51/27/73
f 51/27/74 74/26/75 75/28/76
f 51/29/77 75/30/78 52/31/79
f 52/31/80 75/30/81 76/32/82
f 52/31/83 76/32/84 53/33/85
f 53/33/86 76/32/87 77/34/88
f 53/33/89 77/34/90 54/35/91
f 54/35/92 77/34/93 78/36/94
f 54/35/95 78/36/96 55/37/97
f 55/37/98 78/36/99 79/38/100
f 55/37/101 79/38/102 56/39/103
f 56/39/104 79/38/105 80/40/106
f 56/39/107 80/40/108 57/41/109
f 57/41/110 80/40/111 81/42/112
f 57/41/113 81/42/114 58/43/115
f 58/43/116 81/42/117 82/44/118
f 58/43/119 82/44/120 59/45/121
f 59/45/122 82/44/123 83/46/124
f 59/45/125 83/46/126 60/47/127
f 60/47/128 83/46/125 84/48/129
f 60/47/130 84/48/131 61/49/132
f 61/49/133 84/48/134 85/50/135
f 61/49/136 85/50/137 62/1/138
f 62/1/139 85/50/136 86/2/140
f 86/51/141 2/52/142 63/53/143
f 63/53/143 2/52/142 1/54/143
f 63/53/143 1/54/143 38/55/144
f 2/52/145 86/51/141 3/56/146
f 3/56/147 86/51/141 85/57/148
f 3/56/147 85/57/148 4/58/149
f 4/58/149 85/57/148 5/59/150
f 5/59/151 85/57/148 84/60/152
f 5/59/151 84/60/152 6/61/153
f 6/61/153 84/60/152 7/62/154
f 7/62/155 84/60/152 83/63/156
f 7/62/154 83/63/156 8/64/157
f 8/64/157 83/63/156 82/65/158
f 8/64/157 82/65/158 9/66/159
f 9/66/159 82/65/158 10/67/160
f 10/67/160 82/65/158 81/68/161
f 10/67/160 81/68/162 11/69/163
f 11/69/163 81/68/161 80/70/164
f 11/69/163 80/70/164 12/71/165
f 12/71/165 80/70/164 13/72/166
f 13/72/166 80/70/164 79/73/167
f 13/72/166 79/73/167 14/74/168
f 14/74/169 79/73/167 78/75/170
f 14/74/168 78/75/170 15/76/171
f 15/76/171 78/75/170 16/77/172
f 16/77/172 78/75/170 77/78/173
f 16/77/174 77/78/173 17/79/175
f 17/79/175 77/78/173 18/80/176
f 18/80/176 77/78/173 76/81/177
f 18/80/178 76/81/177 19/82/179
f 19/82/180 76/81/177 75/83/181
f 19/82/180 75/83/181 20/84/181
f 20/85/181 75/86/181 21/87/182
f 21/87/182 75/86/181 74/88/183
f 21/87/184 74/88/183 22/89/185
f 22/89/186 74/88/183 73/90/187
f 22/89/186 73/90/187 23/91/188
f 23/91/188 73/90/187 24/92/189
f 24/92/190 73/90/187 72/93/191
f 24/92/190 72/93/191 25/94/192
f 25/94/192 72/93/191 26/95/193
f 26/95/194 72/93/191 71/96/195
f 26/95/193 71/96/195 27/97/196
f 27/97/196 71/96/195 70/98/197
f 27/97/196 70/98/197 28/99/198
f 28/99/198 70/98/197 29/100/199
f 29/100/199 70/98/197 69/101/200
f 29/100/199 69/101/201 30/102/202
f 30/102/202 69/101/200 68/103/203
f 30/102/202 68/103/203 31/104/204
f 31/104/204 68/103/203 32/105/205
f 32/105/205 68/103/203 67/106/206
f 32/105/205 67/106/206 33/107/207
f 33/107/208 67/106/206 66/108/209
f 33/107/207 66/108/209 34/109/210
f 34/109/210 66/108/209 35/110/211
f 35/110/211 66/108/209 65/111/212
f 35/110/213 65/111/212 36/112/214
f 36/112/214 65/111/212 37/113/215
f 37/113/215 65/111/212 64/114/216
f 37/113/217 64/114/216 38/55/218
f 38/55/144 64/114/216 63/53/143
